<?xml version="1.0" encoding="utf-8"?>
<!-- Generator: Adobe Illustrator 22.1.0, SVG Export Plug-In . SVG Version: 6.00 Build 0)  -->
<svg version="1.1" xmlns="http://www.w3.org/2000/svg" xmlns:xlink="http://www.w3.org/1999/xlink" x="0px" y="0px"
	 viewBox="0 0 95 83.6" style="enable-background:new 0 0 95 83.6;" xml:space="preserve">
<style type="text/css">
	.st0{fill:#FFFFFF;}
</style>
<g id="Capa_2">
</g>
<g id="Capa_1">
	<g>
		<path class="st0" d="M93.5,74.2L77.1,56.4c-1-1.1-2.6-1.8-4.1-1.8H58.1c-1.5,0-2.7,1.2-2.7,2.7l0,0c0,1.5,1.2,2.7,2.7,2.7h15.1
			l16.4,18c0,0.1-0.1,0.1-0.1,0.1H5.6l-0.1-0.2L22,60h14.9c1.5,0,2.7-1.2,2.7-2.7s-1.2-2.7-2.7-2.7H22c-1.6,0-3.1,0.7-4.1,1.8
			L1.5,74.2c-1.6,1.7-1.9,4.2-0.8,6.4c1,1.9,3.1,3,5.2,3h83.2c2.1,0,4.2-1.1,5.2-3C95.5,78.5,95.1,76,93.5,74.2z"/>
		<path class="st0" d="M33.7,27.4c-1.1,1.5-1.8,3.4-1.8,5.4c0,5.2,4.2,9.4,9.4,9.4c0.9,0,1.8-0.2,2.6-0.4V65c0,2,1.6,3.6,3.6,3.6
			s3.6-1.6,3.6-3.6V41.9c0.8,0.2,1.7,0.4,2.6,0.4c5.2,0,9.4-4.2,9.4-9.4c0-2-0.7-3.9-1.8-5.4c1.9-1.9,3.1-4.4,3.1-7.3
			c0-3.9-2.2-7.2-5.4-8.9C58.8,5,53.7,0,47.5,0S36.2,5,36,11.2c-3.2,1.7-5.4,5.1-5.4,8.9C30.6,23,31.8,25.5,33.7,27.4z"/>
	</g>
</g>
</svg>
