<?xml version="1.0" encoding="utf-8"?>
<!-- Generator: Adobe Illustrator 22.1.0, SVG Export Plug-In . SVG Version: 6.00 Build 0)  -->
<svg version="1.1" id="Capa_1" xmlns="http://www.w3.org/2000/svg" xmlns:xlink="http://www.w3.org/1999/xlink" x="0px" y="0px"
	 viewBox="0 0 71.6 90" style="enable-background:new 0 0 71.6 90;" xml:space="preserve">
<style type="text/css">
	.st0{fill:#FFFFFF;}
</style>
<g>
	<circle class="st0" cx="15.4" cy="9.2" r="9.2"/>
	<path class="st0" d="M27.9,36.5c-1.2-1.6-1.8-3.6-1.8-5.7c0-3,1.4-5.7,3.5-7.5c-1.1-1.4-2.8-2.3-4.7-2.3h-9.5l0,0H5.9
		C2.7,21,0,23.6,0,26.9v21.4c0,3.3,2.7,5.9,5.9,5.9h1.4v31.2c0,2.5,2,4.6,4.6,4.6h6.9c2.5,0,4.6-2,4.6-4.6V64.3
		c-1.2-1.3-1.9-3-1.9-4.9V43.7C21.5,40,24.3,36.9,27.9,36.5z"/>
	<path class="st0" d="M56.2,18.5c5.1,0,9.2-4.1,9.2-9.2c0-5.1-4.1-9.2-9.2-9.2C51.1,0,47,4.1,47,9.2C47,14.3,51.1,18.5,56.2,18.5z"
		/>
	<path class="st0" d="M71.6,48.3V26.9c0-3.3-2.6-5.9-5.9-5.9h-19c-1.9,0-3.6,0.9-4.7,2.3c2.1,1.8,3.5,4.5,3.5,7.5
		c0,2.1-0.7,4.1-1.8,5.7c3.6,0.5,6.4,3.6,6.4,7.3v15.7c0,3.4-2.3,6.2-5.4,7.1v4.7c0.3,0.1,0.6,0.1,0.8,0.1h2.6v14.2
		c0,2.5,2,4.6,4.6,4.6h6.9c2.5,0,4.6-2,4.6-4.6V71.2h2.6c2.4,0,4.3-1.9,4.3-4.3l-2.7-13.4C70.3,52.5,71.6,50.6,71.6,48.3z"/>
	<path class="st0" d="M47.1,59.4V43.7c0-2.4-1.9-4.3-4.3-4.3H28.8c-2.4,0-4.3,1.9-4.3,4.3v10.5v5.2c0,2.4,1.9,4.3,4.3,4.3h1.1v22.9
		c0,1.8,1.5,3.4,3.3,3.4h5.1c1.9,0,3.4-1.5,3.4-3.4V68.9v-4.2v-0.9h0.2h0.9C45.1,63.8,47.1,61.8,47.1,59.4z"/>
	<path class="st0" d="M30.8,35.3c0.4,0.4,0.8,0.8,1.2,1.1c1.1,0.7,2.4,1.2,3.8,1.2c1.4,0,2.7-0.4,3.8-1.2c0.5-0.3,0.9-0.7,1.2-1.1
		c1.1-1.2,1.8-2.8,1.8-4.5c0-1.7-0.7-3.3-1.7-4.5c-1.2-1.4-3-2.3-5-2.3c-2,0-3.8,0.9-5,2.3C29.7,27.5,29,29,29,30.8
		C29,32.5,29.7,34.1,30.8,35.3z"/>
</g>
</svg>
