<?xml version="1.0" encoding="utf-8"?>
<!-- Generator: Adobe Illustrator 22.1.0, SVG Export Plug-In . SVG Version: 6.00 Build 0)  -->
<svg version="1.1" id="Capa_1" xmlns="http://www.w3.org/2000/svg" xmlns:xlink="http://www.w3.org/1999/xlink" x="0px" y="0px"
	 viewBox="0 0 128 128" style="enable-background:new 0 0 128 128;" xml:space="preserve">
<style type="text/css">
	.st0{fill:#FFFFFF;}
</style>
<g>
	<title>Монтажная область 29</title>
	<path class="st0" d="M100,95.3c9.6-15.3,17.8-31.5,17.7-35.9c0-1.1-0.2-2.2-0.7-3.2c0.3-1.5,0.1-3.1-0.7-4.4
		c-0.7-1.1-1.9-1.8-3.3-1.9c-3.6-0.4-10.8,1.1-15.6,7.1c-2,2.5-3.9,5.3-5.7,7.9c-0.1-0.1-0.2-0.2-0.3-0.2C90,63.9,88.2,64,86,65
		c-2.8,1.3-6.7,6.4-11.8,13.5c-1.5,2.2-3.2,4.3-4.9,6.4c-1.5,0.5-3,1-4.6,1.6c-2.5,0.9-5.2,1.8-9,3c-1.4,0.1-2.9,0.1-4.3-0.1
		c-10.2-1-20.5-0.1-30.4,2.7C5.4,96.2,0.6,101.8,0.4,102c-0.7,0.9-0.5,2.1,0.4,2.8c0.8,0.6,2,0.5,2.7-0.2c0,0,4.5-5,18.5-8.7
		c9.4-2.7,19.3-3.5,29-2.6c2.7,0.2,4.5,0.4,5.8-0.1c3.9-1.2,6.7-2.2,9.2-3.1c4-1.5,8.2-2.7,12.4-3.6c7.5-1.6,13.2-0.9,16.1,1.9
		c1.5,1.5,2.1,3.5,1.8,5.6l-1,1.5c-2.5,1.9-9.7,3-13.9,3.7c-2.9,0.3-5.8,0.9-8.6,1.8c-7.9,3.3-15.5,7.5-22.5,12.5
		c-0.9,0.7-1.1,1.9-0.4,2.8c0.7,0.9,1.9,1.1,2.8,0.4l0,0c6.8-4.8,14-8.8,21.6-12c2.5-0.7,5.1-1.3,7.7-1.6c3.3-0.5,6.6-1,9.5-1.8
		c-6.6,9.8-13.2,18-17.2,19.8c-7.9,3.6-47.8,3-62.6,2.4c-1.1,0-2,0.8-2.1,1.9c0,1.1,0.8,2,1.9,2.1c1,0,12.3,0.5,25.2,0.5
		c15.5,0,33.6-0.6,39.2-3.2c5.3-2.4,14.1-13.8,22.2-26.5C99.1,97.6,99.8,96.5,100,95.3z M77.4,80.8c3.1-4.2,8.2-11.2,10.3-12.2
		c0.5-0.3,1.1-0.5,1.8-0.5c-0.1,0-0.1-0.1-0.2-0.2c0,0,0-0.1,0-0.1h0.6c-1.2,1.8-2.3,3.5-3.3,4.8c-1.5,2-6.6,8-8.2,9.8l-0.8,0.2
		L75.8,83L77.4,80.8z M84.2,81.7c2.1-2.4,4.5-5.3,5.5-6.6c1.2-1.6,2.6-3.7,4-5.8c2.1-3.1,4.4-6.7,6.9-9.7c3.8-4.7,9.4-6,12-5.7h0.1
		c-2.4,0.3-5.4,2.2-8.9,5.8c-2.6,2.7-4.8,5.6-6.7,8.8c-1.8,2.9-4.3,6.8-9.1,13.3C86.8,81.7,85.5,81.7,84.2,81.7z M97.2,85.6
		c-1.4-1.3-3.1-2.3-4.9-2.9c4.2-5.7,6.5-9.3,8.2-12c1.7-3,3.8-5.7,6.1-8.2c4.2-4.3,6.3-4.8,6.7-4.6l0,0l0,0c0.3,0.5,0.4,1.1,0.3,1.6
		c0.1,3.3-6.3,16.1-14.2,29.2C98.9,87.6,98.2,86.5,97.2,85.6L97.2,85.6z"/>
	<path class="st0" d="M127.2,23.1c-0.8-0.7-2.1-0.6-2.8,0.3c0,0,0,0,0,0c0,0-4.4,5-18.4,8.7c-9.4,2.7-19.3,3.6-29,2.5
		c-2.7-0.2-4.4-0.4-5.8,0c-3.9,1.2-6.7,2.2-9.2,3.1c-4,1.5-8.2,2.7-12.4,3.6C42,43,36.3,42.4,33.4,39.5C32,38.1,31.3,36,31.7,34
		l1-1.5c2.5-1.9,9.7-3,13.9-3.6c2.9-0.3,5.8-0.9,8.5-1.8c7.9-3.3,15.5-7.5,22.5-12.5c0.9-0.7,1.1-1.9,0.4-2.8s-1.9-1.1-2.8-0.4
		c-6.8,4.8-14,8.8-21.6,12c-2.5,0.7-5.1,1.3-7.7,1.6c-3.3,0.5-6.6,1-9.5,1.8c6.6-9.8,13.2-18,17.2-19.8c7.9-3.6,47.8-3,62.6-2.4
		c1.1,0,2-0.8,2.1-1.9c0,0,0,0,0,0c0-1.1-0.8-2-1.9-2.1c0,0,0,0,0,0c-2.2-0.1-54.1-2-64.4,2.8C46.7,5.6,37.9,17,29.7,29.7
		c-0.9,0.8-1.6,1.8-1.9,3c-9.6,15.2-17.8,31.5-17.7,35.9c0,1.1,0.2,2.2,0.7,3.2c-0.3,1.5-0.1,3.1,0.7,4.4c0.7,1.1,1.9,1.8,3.2,1.9
		c0.4,0,0.8,0.1,1.2,0.1C21.7,78,27,75.4,30.5,71c2-2.5,3.9-5.3,5.7-7.9c0.1,0.1,0.2,0.2,0.3,0.2c0.6,0.4,1.4,0.6,2.1,0.6
		c1.2,0,2.3-0.3,3.3-0.9c2.8-1.3,6.7-6.4,11.8-13.5c1.5-2.2,3.2-4.3,4.9-6.4c1.5-0.5,3-1,4.6-1.6c2.5-0.9,5.2-1.8,9-3
		c1.4-0.1,2.9-0.1,4.3,0.1c10.2,1,20.5,0.1,30.4-2.7c15.4-4.1,20.3-9.8,20.4-10C128.2,25.2,128.1,23.9,127.2,23.1
		C127.3,23.2,127.3,23.1,127.2,23.1z M28.4,39.2c0.5,1.2,1.3,2.3,2.2,3.2c1.4,1.3,3.1,2.3,4.9,2.9c-4.2,5.7-6.5,9.3-8.2,12
		c-1.7,3-3.8,5.7-6.1,8.2c-4.2,4.3-6.3,4.8-6.7,4.6l0,0l0,0c-0.3-0.5-0.4-1.1-0.3-1.6C14.1,65.2,20.5,52.4,28.4,39.2z M27.4,68.5
		c-3.8,4.7-9.4,6-12,5.7h-0.2c2.4-0.2,5.4-2.2,9-5.8c2.6-2.7,4.8-5.6,6.7-8.8c1.8-2.9,4.3-6.8,9.1-13.3c0.8,0.1,1.5,0.1,2.4,0.1
		c0.5,0,1,0,1.5,0c-2.1,2.4-4.5,5.3-5.5,6.6c-1.2,1.6-2.6,3.7-4,5.8C32.2,61.9,29.8,65.4,27.4,68.5z M50.5,47.1
		c-3.1,4.2-8.2,11.2-10.3,12.2c-0.5,0.3-1.1,0.5-1.8,0.5c0.1,0,0.1,0.1,0.2,0.2c0,0,0,0.1,0,0.1h-0.6c1.2-1.8,2.3-3.5,3.3-4.8
		c1.5-2,6.6-8,8.2-9.8l0.8-0.2l1.8-0.3L50.5,47.1z"/>
</g>
</svg>
