<?xml version="1.0" encoding="utf-8"?>
<!-- Generator: Adobe Illustrator 22.1.0, SVG Export Plug-In . SVG Version: 6.00 Build 0)  -->
<svg version="1.1" id="Capa_1" xmlns="http://www.w3.org/2000/svg" xmlns:xlink="http://www.w3.org/1999/xlink" x="0px" y="0px"
	 viewBox="0 0 79.5 84.9" style="enable-background:new 0 0 79.5 84.9;" xml:space="preserve">
<style type="text/css">
	.st0{fill:#FFFFFF;}
</style>
<g>
	<g>
		<path class="st0" d="M13.7,22.6v14.2h2.4c0.8-1.4,1.8-2.7,3.1-3.7l3.6-2.9v-7.6c4.5-1.8,7.6-6.2,7.6-11.3S27.3,1.8,22.8,0v8.5
			L18.2,11l-4.5-2.5V0C9.2,1.8,6.1,6.2,6.1,11.3S9.2,20.8,13.7,22.6z"/>
		<path class="st0" d="M8,53.2h8.6V42.6H8c-2.1,0-3.8,1.7-3.8,3.8v2.9C4.1,51.5,5.9,53.2,8,53.2z"/>
		<path class="st0" d="M17.3,63.1c-0.5-1.1-0.8-2.3-0.8-3.6v-4.4H7.9c-1.7,0-3.2-0.7-4.2-1.8C1.6,53.6,0,54.9,0,56.5v4
			c0,1.8,2.1,3.3,4.7,3.3h12.9C17.5,63.6,17.4,63.4,17.3,63.1z"/>
		<path class="st0" d="M33.5,71v-3.7c0-0.9-0.3-1.7-0.9-2.3c-0.6,0.8-1.4,1.5-2.2,2.1c-1.4,0.9-3.1,1.5-4.9,1.5
			c-0.6,0-1.2-0.1-1.7-0.2c-1.8-0.3-3.5-1.3-4.7-2.5H6c-0.2,0.4-0.3,0.9-0.3,1.5v3.7c0,1.4,0.8,2.6,2,3.1c0.4,0.2,0.9,0.3,1.4,0.3
			h21.1C32,74.4,33.5,72.9,33.5,71z"/>
		<path class="st0" d="M34.3,74.4L34.3,74.4c-1,1.2-2.5,1.9-4.1,1.9H10.6c-0.1,0.3-0.2,0.7-0.2,1v4.6c0,1.6,1.3,3,3,3h20.9
			c1.6,0,3-1.3,3-3v-4.6C37.2,75.7,35.9,74.4,34.3,74.4z"/>
		<path class="st0" d="M76.2,35.4H53.4l-16.6-4.8c-2.4-0.7-4.9-0.2-6.8,1.4l-7.2,5.7c-1.5,1.2-2.4,3-2.4,5v16.8
			c0,0.9,0.2,1.7,0.6,2.4c0,0.1,0.1,0.1,0.1,0.2c0.1,0.1,0.1,0.2,0.2,0.3c0,0.1,0.1,0.1,0.1,0.2c0.1,0.1,0.2,0.3,0.4,0.4
			c0,0,0,0,0.1,0.1s0.1,0.1,0.2,0.2c0.1,0.1,0.2,0.1,0.3,0.2c0.2,0.1,0.3,0.2,0.5,0.4l0.8,0.4c0.1,0,0.2,0.1,0.3,0.1
			c0.2,0,0.3,0.1,0.5,0.1s0.3,0.1,0.5,0.1l0,0c0.2,0,0.3,0,0.5,0s0.4,0,0.6,0c0.2,0,0.3,0,0.5-0.1c0.1,0,0.2,0,0.3-0.1
			c0.1,0,0.3-0.1,0.4-0.1c0.2-0.1,0.3-0.1,0.5-0.2c0.1,0,0.2-0.1,0.3-0.2c0.1,0,0.2-0.1,0.3-0.2c0.3-0.2,0.6-0.5,0.9-0.8l0.1-0.1
			c0.1-0.1,0.1-0.1,0.2-0.2c0,0,0,0,0-0.1c0.7-0.8,1-1.9,1-3.1v-12c0,0,11.1,12.2,24.3,4.6L37.1,65.1c0.2,0.7,0.3,1.4,0.3,2.1v3.7
			c0,0.1,0,0.2,0,0.3c2.2,1.1,3.7,3.4,3.7,6.1v4.5l14.7-7.4h20.4c1.8,0,3.3-1.5,3.3-3.3V38.7C79.5,36.9,78,35.4,76.2,35.4z"/>
	</g>
</g>
</svg>
