<?xml version="1.0" encoding="utf-8"?>
<!-- Generator: Adobe Illustrator 22.1.0, SVG Export Plug-In . SVG Version: 6.00 Build 0)  -->
<svg version="1.1" id="Capa_1" xmlns="http://www.w3.org/2000/svg" xmlns:xlink="http://www.w3.org/1999/xlink" x="0px" y="0px"
	 viewBox="0 0 60 60" style="enable-background:new 0 0 60 60;" xml:space="preserve">
<style type="text/css">
	.st0{fill:none;stroke:#FFFFFF;stroke-width:2;stroke-linecap:round;stroke-linejoin:round;}
</style>
<title>79 -News- (Outline)</title>
<desc>Created with Sketch.</desc>
<g>
	<g transform="translate(-1080.000000, -1242.000000)">
		<g transform="translate(1081.000000, 1243.000000)">
			<path class="st0" d="M11,21v12"/>
			<path class="st0" d="M13.6,18.4L7,25"/>
			<path class="st0" d="M14.2,19L13,17.8c-0.5-0.5-0.5-1.2,0-1.7l1.1-1.1c0.5-0.5,1.2-0.5,1.7,0l1.1,1.1c0.5,0.5,0.5,1.2,0,1.7
				L15.8,19C15.4,19.5,14.6,19.5,14.2,19L14.2,19z"/>
			<path class="st0" d="M45,21v12"/>
			<path class="st0" d="M42.4,18.4L49,25"/>
			<path class="st0" d="M41.8,19l1.1-1.1c0.5-0.5,0.5-1.2,0-1.7L41.8,15c-0.5-0.5-1.2-0.5-1.7,0L39,16.2c-0.5,0.5-0.5,1.2,0,1.7
				l1.1,1.1C40.6,19.5,41.4,19.5,41.8,19L41.8,19z"/>
			<path class="st0" d="M58,40H0V4c0-2.2,1.8-4,4-4h50c2.2,0,4,1.8,4,4V40L58,40z"/>
			<path class="st0" d="M54,48H4c-2.2,0-4-1.8-4-4v-4h58v4C58,46.2,56.2,48,54,48L54,48z"/>
			<polygon class="st0" points="38,58 20,58 23,48 35,48 			"/>
			<path class="st0" d="M40,58H18"/>
			<path class="st0" d="M35,11c0,3.9-3.1,7-7,7s-7-3.1-7-7s3.1-7,7-7S35,7.1,35,11L35,11z"/>
			<path class="st0" d="M32.3,20.1C31,20.7,29.5,21,28,21c-1.5,0-3-0.3-4.3-0.9C20.9,21.6,19,24.6,19,28v5h18v-5
				C37,24.6,35.1,21.6,32.3,20.1L32.3,20.1z"/>
			<polygon class="st0" points="31,24 28,30 25,24 28,21 			"/>
			<polygon class="st0" points="5,40 53,40 53,33 5,33 			"/>
			<path class="st0" d="M6,6h8"/>
			<path class="st0" d="M6,10h4"/>
		</g>
	</g>
</g>
</svg>
