<?xml version="1.0" encoding="utf-8"?>
<!-- Generator: Adobe Illustrator 22.1.0, SVG Export Plug-In . SVG Version: 6.00 Build 0)  -->
<svg version="1.1" id="Capa_1" xmlns="http://www.w3.org/2000/svg" xmlns:xlink="http://www.w3.org/1999/xlink" x="0px" y="0px"
	 viewBox="0 0 90 124.5" style="enable-background:new 0 0 90 124.5;" xml:space="preserve">
<style type="text/css">
	.st0{fill:#FFD100;stroke:#ECECEC;stroke-miterlimit:10;}
	.st1{fill:#FF005D;stroke:#ECECEC;stroke-miterlimit:10;}
</style>
<path class="st0" d="M78.5,103.4c-2,2.7-6.1,8.4-5.8,17.4c0.1,2.1-2,3-3.8,3.4c-2.5,0.5-10.8,0.7-11.7-1.5c-0.7-1-0.5-4.7-0.5-6.1
	c-6.1,0.9-11.6,0.9-17.7,1c0,2,0.4,6.8-2.4,6.7c-2.7-0.1-10.2,0.5-12.2-0.4c-3.8-0.7-0.5-10.7-2.9-11.3c-4.3-1-4.7-1.2-7.4-3l0,0
	c-2.9-1.9-4.9-4.5-6.1-8.9c0-0.2-1-0.4-1.9-0.7c-3.6-0.9-5-2.6-5.8-6.6c-0.4-1.7-0.5-3.8,0.1-6.1c0.8-3.5,6.6-3,6.7-3.1
	c0.8-2.5,3.9-6.7,4.4-7.3c1.3-1.5,2.9-2.9,4.7-4c-3.6-3.1-8-3.5-12.5-4.5c8.9-4.2,16.6-5.7,26-1.1c3.3-2,9-3.2,15.5-3.2
	c12,0,26.3,4.1,32.8,15l0.1,0.2c0.4-0.4,0.8-0.8,1.2-1.2c-2.5-1.4-4.1-4.9-2.7-7.6c1.3-2.5,5.3-2.7,7.3-0.8c1.7,1.7,1.4,3.8,0.7,5.9
	c1.9-0.7,4.5-0.9,5.4-3.1c-0.4,4.1-3.3,6.7-7.3,6.5c-0.9,1.2-1.9,2.3-3.1,3.2C82.2,88.9,82.6,97.7,78.5,103.4L78.5,103.4z M17,82.2
	c-1.4,0-2.5,1.1-2.5,2.5s1.1,2.5,2.5,2.5s2.5-1.1,2.5-2.5C19.5,83.4,18.4,82.2,17,82.2L17,82.2z M81,75.6c0.6-1.1,1.9-4.2-0.8-3.9
	C78.1,72,79.5,74.9,81,75.6L81,75.6z M74.3,81.3c-5.7-9.5-18.7-13-29.2-13c-5.7,0-10.7,1-13.3,2.6c-0.9,0.6-2,0.8-3,0.2
	c-4.6-2.4-8.5-4.2-14.5-3.1c5.2,2.9,10.3,6.8,11.5,11.9c-2.1-3.8-6-4.3-6.8-3.8c-3.7,1.9-6.5,5.7-8.1,9.5C10.2,87.1,6,88.2,6,88.2
	c-0.9,0.2-1.6-0.5-1.7-0.1c-0.4,1.6-0.3,3.1,0,4.3c0.5,2.4,0.5,2.8,2.8,3.5c2,0.5,4.1,1.1,4.8,3.6c0.9,3.3,2.3,5.2,4.3,6.5l0,0
	c2.2,1.4,4.4,2.1,8.3,3c2.6,0.6,1.6,8.1,1.9,10.8c0.4,0.2,7.5,0.1,8.8,0.1c0.1-4.2,0.5-11.1,0.6-14c1.3,1.9,2.5,3.8,3,7.4
	c6-0.1,11.6-0.1,17.5-1c-0.2-2.1,2.1-6.6,3.3-7.9c-0.6,3.1,0,15.1,0.6,15.9c0.8,0.1,4,0,5.7-0.1c0.9,0,1.7-0.1,2.5-0.3
	c0-8.7,3.3-13.1,7.4-20.2C79,94.4,77.4,86.5,74.3,81.3z"/>
<g>
	<g transform="translate(0 -48)">
		<path class="st1" d="M89.7,48l-12.5,5.4c-10.2-1.1-20.8-2-32-2.1c-2.4,0-3.9,0.6-4.8,1.5C29.8,61.7,16.9,70.6,4.1,79.5l1,2.3
			c3.8,3.8,16.1-4.6,27-11V72c0.1,2.3-0.4,5.4,5.8,11h0.2c-4.8,1.9-8.1,6.6-8.1,12.1c0,7.2,5.8,13,13,13s13-5.8,13-13
			c0-3.5-1.4-6.8-3.7-9.1c11.5-7.3,26.8-12.2,37.1-21.8L89.7,48z M52.6,95c0,5.3-4.3,9.6-9.6,9.6s-9.6-4.3-9.6-9.6
			c0-5.3,4.3-9.6,9.6-9.6S52.6,89.7,52.6,95z M57.7,73.3c-1.4,3.3-6.9,6-10.1,9.5c-1.2-0.5-2.5-0.8-3.9-0.8
			c-0.5-2.1-1.2-4.1-2.6-6.2c-2.4-3.3-0.9-6.4,5.8-9.3C59.1,63.7,59.3,69.4,57.7,73.3z"/>
	</g>
	<g>
		<path class="st1" d="M41.5,43.1c-0.4,0.3-0.6,0.7-0.6,1.1c0,0.3,0.1,0.6,0.3,0.8c0.2,0.2,0.5,0.4,0.8,0.5s0.8,0.3,1.4,0.5
			c0.8,0.3,1.5,0.5,2,0.7s1,0.6,1.3,1.1c0.4,0.5,0.6,1.1,0.6,1.8c0,1.1-0.4,2-1.1,2.7c-0.7,0.7-1.7,1.1-3,1.3l-0.1,1
			c0,0.3-0.1,0.6-0.3,0.8c-0.2,0.2-0.5,0.3-0.8,0.3s-0.6-0.1-0.8-0.3c-0.2-0.2-0.3-0.5-0.3-0.8l0.1-1c-1.3-0.1-2.4-0.4-3.2-0.9
			c-0.2-0.1-0.4-0.3-0.5-0.4c-0.1-0.2-0.1-0.4-0.1-0.6c0-0.3,0.1-0.6,0.3-0.8c0.2-0.2,0.4-0.4,0.7-0.4c0.2,0,0.4,0,0.6,0.1
			c0.5,0.3,1,0.5,1.6,0.6c0.5,0.1,1.1,0.2,1.8,0.2s1.3-0.1,1.7-0.4s0.6-0.7,0.6-1.1c0-0.3-0.1-0.5-0.3-0.7s-0.5-0.4-0.8-0.5
			s-0.8-0.3-1.3-0.5c-0.9-0.3-1.5-0.5-2.1-0.8c-0.5-0.3-1-0.6-1.4-1.1S38,45.2,38,44.4c0-0.7,0.2-1.3,0.5-1.9s0.8-1,1.5-1.4
			c0.6-0.4,1.3-0.6,2.2-0.7l0.1-1c0-0.3,0.1-0.6,0.3-0.8s0.5-0.3,0.8-0.3s0.6,0.1,0.8,0.3s0.3,0.5,0.3,0.8l-0.1,1
			c1.3,0.2,2.3,0.5,3.1,1.1c0.3,0.2,0.4,0.5,0.4,0.8c0,0.3-0.1,0.6-0.3,0.8c-0.2,0.2-0.5,0.4-0.8,0.4c-0.2,0-0.4-0.1-0.6-0.2
			c-1-0.6-2.1-0.9-3.1-0.9C42.4,42.7,41.9,42.9,41.5,43.1z"/>
	</g>
</g>
</svg>
